{
  "accessors": [
    {
      "bufferView": 2,
      "componentType": 5126,
      "count": 128,
      "max": [
        4.6639180183410645,
        -0.89999902248382568,
        7.886077880859375
      ],
      "min": [
        -2.3860859870910645,
        -1.0000009536743164,
        3.6909339427947998
      ],
      "type": "VEC3"
    },
    {
      "bufferView": 2,
      "byteOffset": 1536,
      "componentType": 5126,
      "count": 128,
      "max": [
        0.99785929918289185,
        0,
        0.99785929918289185
      ],
      "min": [
        -0.99785929918289185,
        -0.70716112852096558,
        -0.99785929918289185
      ],
      "type": "VEC3"
    },
    {
      "bufferView": 3,
      "componentType": 5126,
      "count": 128,
      "max": [
        0.72359204292297363,
        1,
        0.99854379892349243,
        1
      ],
      "min": [
        -0.15327739715576172,
        -1,
        -0.043479885905981064,
        1
      ],
      "type": "VEC4"
    },
    {
      "bufferView": 1,
      "componentType": 5126,
      "count": 128,
      "max": [
        0.89655500650405884,
        0.99839502573013306
      ],
      "min": [
        0.71043497323989868,
        0
      ],
      "type": "VEC2"
    },
    {
      "bufferView": 0,
      "componentType": 5125,
      "count": 336,
      "max": [
        127
      ],
      "min": [
        0
      ],
      "type": "SCALAR"
    },
    {
      "bufferView": 2,
      "byteOffset": 3072,
      "componentType": 5126,
      "count": 602,
      "max": [
        5.4328131675720215,
        0.010001000016927719,
        7.4345531463623047
      ],
      "min": [
        -1.9345599412918091,
        -1.1878869533538818,
        0.53760302066802979
      ],
      "type": "VEC3"
    },
    {
      "bufferView": 2,
      "byteOffset": 10296,
      "componentType": 5126,
      "count": 602,
      "max": [
        0.95519649982452393,
        1,
        0.96019107103347778
      ],
      "min": [
        -0.93467986583709717,
        -1,
        -0.95153605937957764
      ],
      "type": "VEC3"
    },
    {
      "bufferView": 3,
      "byteOffset": 2048,
      "componentType": 5126,
      "count": 602,
      "max": [
        1,
        0.9602547287940979,
        0,
        1
      ],
      "min": [
        -0.44467470049858093,
        -0.96394288539886475,
        -0.92414969205856323,
        -1
      ],
      "type": "VEC4"
    },
    {
      "bufferView": 1,
      "byteOffset": 1024,
      "componentType": 5126,
      "count": 602,
      "max": [
        0.73884201049804688,
        0.61217498779296875
      ],
      "min": [
        0.0070150000974535942,
        0.0070150000974535942
      ],
      "type": "VEC2"
    },
    {
      "bufferView": 0,
      "byteOffset": 1344,
      "componentType": 5125,
      "count": 3024,
      "max": [
        601
      ],
      "min": [
        0
      ],
      "type": "SCALAR"
    },
    {
      "bufferView": 2,
      "byteOffset": 17520,
      "componentType": 5126,
      "count": 4426,
      "max": [
        6.2671809196472168,
        1.4910099506378174,
        8.0331802368164062
      ],
      "min": [
        -2.4104359149932861,
        -0.99904799461364746,
        0.061980001628398895
      ],
      "type": "VEC3"
    },
    {
      "bufferView": 2,
      "byteOffset": 70632,
      "componentType": 5126,
      "count": 4426,
      "max": [
        1,
        0.99999105930328369,
        1
      ],
      "min": [
        -1,
        -0.99994361400604248,
        -1
      ],
      "type": "VEC3"
    },
    {
      "bufferView": 3,
      "byteOffset": 11680,
      "componentType": 5126,
      "count": 4426,
      "max": [
        0.99999880790710449,
        0.99974000453948975,
        0.9998314380645752,
        1
      ],
      "min": [
        -1,
        -1,
        -0.99920594692230225,
        -1
      ],
      "type": "VEC4"
    },
    {
      "bufferView": 1,
      "byteOffset": 5840,
      "componentType": 5126,
      "count": 4426,
      "max": [
        0.92685097455978394,
        0.88622301816940308
      ],
      "min": [
        0,
        0
      ],
      "type": "VEC2"
    },
    {
      "bufferView": 0,
      "byteOffset": 13440,
      "componentType": 5125,
      "count": 13854,
      "max": [
        4425
      ],
      "min": [
        0
      ],
      "type": "SCALAR"
    },
    {
      "bufferView": 2,
      "byteOffset": 123744,
      "componentType": 5126,
      "count": 26,
      "max": [
        5.2692790031433105,
        -0.94456100463867188,
        6.2381658554077148
      ],
      "min": [
        5.0011229515075684,
        -0.94456201791763306,
        4.997952938079834
      ],
      "type": "VEC3"
    },
    {
      "bufferView": 2,
      "byteOffset": 124056,
      "componentType": 5126,
      "count": 26,
      "max": [
        9.9999997473787516e-05,
        -1,
        0
      ],
      "min": [
        0,
        -1,
        0
      ],
      "type": "VEC3"
    },
    {
      "bufferView": 3,
      "byteOffset": 82496,
      "componentType": 5126,
      "count": 26,
      "max": [
        1,
        9.9999990197829902e-05,
        0.00021230813581496477,
        1
      ],
      "min": [
        1,
        0,
        -0.00021224466036073864,
        1
      ],
      "type": "VEC4"
    },
    {
      "bufferView": 1,
      "byteOffset": 41248,
      "componentType": 5126,
      "count": 26,
      "max": [
        0.15016099810600281,
        0.68610900640487671
      ],
      "min": [
        0.069682002067565918,
        0.31389099359512329
      ],
      "type": "VEC2"
    },
    {
      "bufferView": 0,
      "byteOffset": 68856,
      "componentType": 5125,
      "count": 72,
      "max": [
        25
      ],
      "min": [
        0
      ],
      "type": "SCALAR"
    },
    {
      "bufferView": 2,
      "byteOffset": 124368,
      "componentType": 5126,
      "count": 6064,
      "max": [
        7.5011811256408691,
        1.6232969760894775,
        7.986079216003418
      ],
      "min": [
        -2.4860858917236328,
        -1.2387399673461914,
        -0.013923999853432178
      ],
      "type": "VEC3"
    },
    {
      "bufferView": 2,
      "byteOffset": 197136,
      "componentType": 5126,
      "count": 6064,
      "max": [
        1,
        1,
        1
      ],
      "min": [
        -1,
        -1,
        -1
      ],
      "type": "VEC3"
    },
    {
      "bufferView": 3,
      "byteOffset": 82912,
      "componentType": 5126,
      "count": 6064,
      "max": [
        1,
        1,
        1,
        1
      ],
      "min": [
        -1,
        -1,
        -1,
        -1
      ],
      "type": "VEC4"
    },
    {
      "bufferView": 1,
      "byteOffset": 41456,
      "componentType": 5126,
      "count": 6064,
      "max": [
        1,
        1
      ],
      "min": [
        0,
        0
      ],
      "type": "VEC2"
    },
    {
      "bufferView": 0,
      "byteOffset": 69144,
      "componentType": 5125,
      "count": 18255,
      "max": [
        6063
      ],
      "min": [
        0
      ],
      "type": "SCALAR"
    },
    {
      "bufferView": 2,
      "byteOffset": 269904,
      "componentType": 5126,
      "count": 28,
      "max": [
        4.6564178466796875,
        -0.99999898672103882,
        7.8785791397094727
      ],
      "min": [
        -2.3785860538482666,
        -1.0000009536743164,
        3.6984350681304932
      ],
      "type": "VEC3"
    },
    {
      "bufferView": 2,
      "byteOffset": 270240,
      "componentType": 5126,
      "count": 28,
      "max": [
        0,
        -1,
        9.9999997473787516e-05
      ],
      "min": [
        0,
        -1,
        0
      ],
      "type": "VEC3"
    },
    {
      "bufferView": 3,
      "byteOffset": 179936,
      "componentType": 5126,
      "count": 28,
      "max": [
        1,
        0,
        0.00010744613973656669,
        1
      ],
      "min": [
        1,
        -2.9145349245141006e-08,
        -0.0002914534998126328,
        1
      ],
      "type": "VEC4"
    },
    {
      "bufferView": 1,
      "byteOffset": 89968,
      "componentType": 5126,
      "count": 28,
      "max": [
        0.62428802251815796,
        0.99298501014709473
      ],
      "min": [
        0.0070150000974535942,
        0.62620598077774048
      ],
      "type": "VEC2"
    },
    {
      "bufferView": 0,
      "byteOffset": 142164,
      "componentType": 5125,
      "count": 78,
      "max": [
        27
      ],
      "min": [
        0
      ],
      "type": "SCALAR"
    },
    {
      "bufferView": 2,
      "byteOffset": 270576,
      "componentType": 5126,
      "count": 4,
      "max": [
        4.9623942375183105,
        0.0010010000551119447,
        5.0819997787475586
      ],
      "min": [
        -1.9345580339431763,
        0.00099900003988295794,
        2.8901569843292236
      ],
      "type": "VEC3"
    },
    {
      "bufferView": 2,
      "byteOffset": 270624,
      "componentType": 5126,
      "count": 4,
      "max": [
        0,
        1,
        0
      ],
      "min": [
        0,
        1,
        0
      ],
      "type": "VEC3"
    },
    {
      "bufferView": 3,
      "byteOffset": 180384,
      "componentType": 5126,
      "count": 4,
      "max": [
        -1,
        0,
        0,
        1
      ],
      "min": [
        -1,
        0,
        0,
        1
      ],
      "type": "VEC4"
    },
    {
      "bufferView": 1,
      "byteOffset": 90192,
      "componentType": 5126,
      "count": 4,
      "max": [
        0.99719697237014771,
        0.31881999969482422
      ],
      "min": [
        0.0028029999230057001,
        0.0028029999230057001
      ],
      "type": "VEC2"
    },
    {
      "bufferView": 0,
      "byteOffset": 142476,
      "componentType": 5125,
      "count": 6,
      "max": [
        3
      ],
      "min": [
        0
      ],
      "type": "SCALAR"
    },
    {
      "bufferView": 2,
      "byteOffset": 270672,
      "componentType": 5126,
      "count": 26,
      "max": [
        5.2692790031433105,
        -0.91510200500488281,
        6.2381658554077148
      ],
      "min": [
        5.0011229515075684,
        -0.91510301828384399,
        4.997952938079834
      ],
      "type": "VEC3"
    },
    {
      "bufferView": 2,
      "byteOffset": 270984,
      "componentType": 5126,
      "count": 26,
      "max": [
        0,
        -1,
        0
      ],
      "min": [
        0,
        -1,
        0
      ],
      "type": "VEC3"
    },
    {
      "bufferView": 3,
      "byteOffset": 180448,
      "componentType": 5126,
      "count": 26,
      "max": [
        1,
        0,
        0.00034328541369177401,
        1
      ],
      "min": [
        1,
        0,
        -0.00034366216277703643,
        1
      ],
      "type": "VEC4"
    },
    {
      "bufferView": 1,
      "byteOffset": 90224,
      "componentType": 5126,
      "count": 26,
      "max": [
        0.16957999765872955,
        0.77592402696609497
      ],
      "min": [
        0.050262000411748886,
        0.22407600283622742
      ],
      "type": "VEC2"
    },
    {
      "bufferView": 0,
      "byteOffset": 142500,
      "componentType": 5125,
      "count": 72,
      "max": [
        25
      ],
      "min": [
        0
      ],
      "type": "SCALAR"
    },
    {
      "bufferView": 2,
      "byteOffset": 271296,
      "componentType": 5126,
      "count": 712,
      "max": [
        4.3511371612548828,
        -0.30236399173736572,
        8.0323429107666016
      ],
      "min": [
        -0.54752200841903687,
        -0.6976349949836731,
        0.047940999269485474
      ],
      "type": "VEC3"
    },
    {
      "bufferView": 2,
      "byteOffset": 279840,
      "componentType": 5126,
      "count": 712,
      "max": [
        1,
        1,
        1
      ],
      "min": [
        -1,
        -1,
        -1
      ],
      "type": "VEC3"
    },
    {
      "bufferView": 3,
      "byteOffset": 180864,
      "componentType": 5126,
      "count": 712,
      "max": [
        0,
        0,
        0,
        1
      ],
      "min": [
        0,
        0,
        0,
        1
      ],
      "type": "VEC4"
    },
    {
      "bufferView": 1,
      "byteOffset": 90432,
      "componentType": 5126,
      "count": 712,
      "max": [
        0,
        0
      ],
      "min": [
        0,
        0
      ],
      "type": "VEC2"
    },
    {
      "bufferView": 0,
      "byteOffset": 142788,
      "componentType": 5125,
      "count": 2064,
      "max": [
        711
      ],
      "min": [
        0
      ],
      "type": "SCALAR"
    }
  ],
  "asset": {
    "extras": {
      "author": "CB3D Studio (https://sketchfab.com/corentin3D)",
      "license": "CC-BY-4.0 (http://creativecommons.org/licenses/by/4.0/)",
      "source": "https://sketchfab.com/3d-models/playdate-868ca42e18854499aea5f8e1b4864781",
      "title": "PLAYDATE"
    },
    "generator": "Sketchfab-6.2.0",
    "version": "2.0"
  },
  "bufferViews": [
    {
      "buffer": 0,
      "byteLength": 151044,
      "byteOffset": 0,
      "name": "floatBufferViews",
      "target": 34963
    },
    {
      "buffer": 0,
      "byteLength": 96128,
      "byteOffset": 151044,
      "byteStride": 8,
      "name": "floatBufferViews",
      "target": 34962
    },
    {
      "buffer": 0,
      "byteLength": 288384,
      "byteOffset": 247172,
      "byteStride": 12,
      "name": "floatBufferViews",
      "target": 34962
    },
    {
      "buffer": 0,
      "byteLength": 192256,
      "byteOffset": 535556,
      "byteStride": 16,
      "name": "floatBufferViews",
      "target": 34962
    }
  ],
  "buffers": [
    {
      "byteLength": 727812,
      "uri": "scene.bin"
    }
  ],
  "images": [
    {
      "uri": "textures/ALPHA_baseColor.png"
    },
    {
      "uri": "textures/ECRAN_baseColor.jpeg"
    },
    {
      "uri": "textures/GRILLE_baseColor.png"
    },
    {
      "uri": "textures/LOGOPLAY_baseColor.png"
    },
    {
      "uri": "textures/LOGOPLAY_normal.png"
    }
  ],
  "materials": [
    {
      "alphaMode": "BLEND",
      "doubleSided": true,
      "name": "ALPHA",
      "pbrMetallicRoughness": {
        "baseColorFactor": [
          1,
          1,
          1,
          0.5
        ],
        "baseColorTexture": {
          "index": 0,
          "texCoord": 0
        },
        "metallicFactor": 0,
        "roughnessFactor": 0
      }
    },
    {
      "doubleSided": true,
      "name": "CHROME",
      "pbrMetallicRoughness": {
        "baseColorFactor": [
          1,
          1,
          1,
          1
        ],
        "metallicFactor": 1,
        "roughnessFactor": 0.25
      }
    },
    {
      "doubleSided": true,
      "name": "ECRAN",
      "pbrMetallicRoughness": {
        "baseColorFactor": [
          1,
          1,
          1,
          1
        ],
        "baseColorTexture": {
          "index": 1,
          "texCoord": 0
        },
        "metallicFactor": 0,
        "roughnessFactor": 0
      }
    },
    {
      "doubleSided": true,
      "name": "ECRAN_GLASS",
      "pbrMetallicRoughness": {
        "baseColorFactor": [
          0,
          0,
          0,
          1
        ],
        "metallicFactor": 0,
        "roughnessFactor": 0
      }
    },
    {
      "alphaMode": "BLEND",
      "doubleSided": true,
      "name": "GRILLE",
      "pbrMetallicRoughness": {
        "baseColorFactor": [
          0.26391006099999997,
          0.26391006099999997,
          0.26391006099999997,
          1
        ],
        "baseColorTexture": {
          "index": 2,
          "texCoord": 0
        },
        "metallicFactor": 1,
        "roughnessFactor": 0.2943978659
      }
    },
    {
      "doubleSided": true,
      "name": "GRIS",
      "pbrMetallicRoughness": {
        "baseColorFactor": [
          0.034218421399999997,
          0.034218421399999997,
          0.034218421399999997,
          1
        ],
        "metallicFactor": 0,
        "roughnessFactor": 0.65000000000000002
      }
    },
    {
      "doubleSided": true,
      "name": "JAUNE",
      "pbrMetallicRoughness": {
        "baseColorFactor": [
          0.76656141899999997,
          0.3612162646,
          0.029749588600000001,
          1
        ],
        "metallicFactor": 0.20000000000000001,
        "roughnessFactor": 0.34927591460000001
      }
    },
    {
      "alphaMode": "BLEND",
      "doubleSided": true,
      "name": "LOGOPLAY",
      "normalTexture": {
        "index": 4,
        "scale": 0.5,
        "texCoord": 0
      },
      "pbrMetallicRoughness": {
        "baseColorFactor": [
          0.69387176129999995,
          0.28314874039999999,
          0.0065120908000000002,
          1
        ],
        "baseColorTexture": {
          "index": 3,
          "texCoord": 0
        },
        "metallicFactor": 0.20000000000000001,
        "roughnessFactor": 0.19073932930000001
      }
    },
    {
      "doubleSided": true,
      "name": "NOIR",
      "pbrMetallicRoughness": {
        "baseColorFactor": [
          0.0077261005999999998,
          0.0077261005999999998,
          0.0077261005999999998,
          1
        ],
        "metallicFactor": 0,
        "roughnessFactor": 0
      }
    }
  ],
  "meshes": [
    {
      "primitives": [
        {
          "attributes": {
            "NORMAL": 1,
            "POSITION": 0,
            "TANGENT": 2,
            "TEXCOORD_0": 3
          },
          "indices": 4,
          "material": 3,
          "mode": 4
        }
      ]
    },
    {
      "primitives": [
        {
          "attributes": {
            "NORMAL": 6,
            "POSITION": 5,
            "TANGENT": 7,
            "TEXCOORD_0": 8
          },
          "indices": 9,
          "material": 0,
          "mode": 4
        }
      ]
    },
    {
      "primitives": [
        {
          "attributes": {
            "NORMAL": 11,
            "POSITION": 10,
            "TANGENT": 12,
            "TEXCOORD_0": 13
          },
          "indices": 14,
          "material": 1,
          "mode": 4
        }
      ]
    },
    {
      "primitives": [
        {
          "attributes": {
            "NORMAL": 16,
            "POSITION": 15,
            "TANGENT": 17,
            "TEXCOORD_0": 18
          },
          "indices": 19,
          "material": 4,
          "mode": 4
        }
      ]
    },
    {
      "primitives": [
        {
          "attributes": {
            "NORMAL": 21,
            "POSITION": 20,
            "TANGENT": 22,
            "TEXCOORD_0": 23
          },
          "indices": 24,
          "material": 6,
          "mode": 4
        }
      ]
    },
    {
      "primitives": [
        {
          "attributes": {
            "NORMAL": 26,
            "POSITION": 25,
            "TANGENT": 27,
            "TEXCOORD_0": 28
          },
          "indices": 29,
          "material": 2,
          "mode": 4
        }
      ]
    },
    {
      "primitives": [
        {
          "attributes": {
            "NORMAL": 31,
            "POSITION": 30,
            "TANGENT": 32,
            "TEXCOORD_0": 33
          },
          "indices": 34,
          "material": 7,
          "mode": 4
        }
      ]
    },
    {
      "primitives": [
        {
          "attributes": {
            "NORMAL": 36,
            "POSITION": 35,
            "TANGENT": 37,
            "TEXCOORD_0": 38
          },
          "indices": 39,
          "material": 8,
          "mode": 4
        }
      ]
    },
    {
      "primitives": [
        {
          "attributes": {
            "NORMAL": 41,
            "POSITION": 40,
            "TANGENT": 42,
            "TEXCOORD_0": 43
          },
          "indices": 44,
          "material": 5,
          "mode": 4
        }
      ]
    }
  ],
  "nodes": [
    {
      "children": [
        1
      ],
      "name": "RootNode (gltf orientation matrix)",
      "rotation": [
        -0.70710678118654746,
        -0,
        -0,
        0.70710678118654757
      ]
    },
    {
      "children": [
        2
      ],
      "name": "RootNode (model correction matrix)"
    },
    {
      "children": [
        3,
        4,
        5,
        6,
        7,
        8,
        9,
        10,
        11
      ],
      "name": "PLAY DATE SKETCHFAB.obj.cleaner.materialmerger.gles"
    },
    {
      "mesh": 0,
      "name": ""
    },
    {
      "mesh": 1,
      "name": ""
    },
    {
      "mesh": 2,
      "name": ""
    },
    {
      "mesh": 3,
      "name": ""
    },
    {
      "mesh": 4,
      "name": ""
    },
    {
      "mesh": 5,
      "name": ""
    },
    {
      "mesh": 6,
      "name": ""
    },
    {
      "mesh": 7,
      "name": ""
    },
    {
      "mesh": 8,
      "name": ""
    }
  ],
  "samplers": [
    {
      "magFilter": 9729,
      "minFilter": 9987,
      "wrapS": 10497,
      "wrapT": 10497
    }
  ],
  "scene": 0,
  "scenes": [
    {
      "name": "OSG_Scene",
      "nodes": [
        0
      ]
    }
  ],
  "textures": [
    {
      "sampler": 0,
      "source": 0
    },
    {
      "sampler": 0,
      "source": 1
    },
    {
      "sampler": 0,
      "source": 2
    },
    {
      "sampler": 0,
      "source": 3
    },
    {
      "sampler": 0,
      "source": 4
    }
  ]
}

